<svg xmlns="http://www.w3.org/2000/svg" viewBox="0 0 512 512" role="img" aria-label="FileBox logo">
  <defs>
    <linearGradient id="filebox-bg" x1="0" y1="0" x2="1" y2="1">
      <stop offset="0%" stop-color="#63b0f9"/>
      <stop offset="100%" stop-color="#8162ff"/>
    </linearGradient>
  </defs>
  <rect x="32" y="32" width="448" height="448" rx="96" fill="url(#filebox-bg)"/>
  <g fill="none" stroke="#eef2ff" stroke-width="22" stroke-linecap="round" stroke-linejoin="round">
    <path d="M168 244c0-38 30-68 68-68 28 0 52 16 63 39 20 0 37 17 37 37s-17 38-38 38H178c-21 0-38-17-38-38 0-17 11-32 26-36"/>
    <path d="M134 278c42 34 202 34 244 0"/>
    <path d="M150 310c38 30 186 30 224 0"/>
    <path d="M166 342c34 24 170 24 204 0"/>
  </g>
</svg>
